<?xml version="1.0" encoding="UTF-8" standalone="no"?>
<svg
   xmlns:dc="http://purl.org/dc/elements/1.1/"
   xmlns:cc="http://creativecommons.org/ns#"
   xmlns:rdf="http://www.w3.org/1999/02/22-rdf-syntax-ns#"
   xmlns:svg="http://www.w3.org/2000/svg"
   xmlns="http://www.w3.org/2000/svg"
   xmlns:xlink="http://www.w3.org/1999/xlink"
   xmlns:sodipodi="http://sodipodi.sourceforge.net/DTD/sodipodi-0.dtd"
   xmlns:inkscape="http://www.inkscape.org/namespaces/inkscape"
   width="564.77771"
   height="499.6225"
   viewBox="0 0 564.77771 499.6225"
   id="svg2"
   version="1.1"
   inkscape:version="0.47 r22583"
   sodipodi:docname="odbicia.svg">
  <metadata
     id="metadata216">
    <rdf:RDF>
      <cc:Work
         rdf:about="">
        <dc:format>image/svg+xml</dc:format>
        <dc:type
           rdf:resource="http://purl.org/dc/dcmitype/StillImage" />
        <dc:title />
      </cc:Work>
    </rdf:RDF>
  </metadata>
  <sodipodi:namedview
     pagecolor="#ffffff"
     bordercolor="#666666"
     borderopacity="1"
     objecttolerance="10"
     gridtolerance="10"
     guidetolerance="10"
     inkscape:pageopacity="0"
     inkscape:pageshadow="2"
     inkscape:window-width="1920"
     inkscape:window-height="1125"
     id="namedview214"
     showgrid="false"
     inkscape:zoom="1.4142136"
     inkscape:cx="191.51783"
     inkscape:cy="286.95785"
     inkscape:window-x="0"
     inkscape:window-y="25"
     inkscape:window-maximized="1"
     inkscape:current-layer="svg2"
     inkscape:object-nodes="true" />
  <desc
     id="desc4">Produced by GNUPLOT 4.4 patchlevel 0 </desc>
  <defs
     id="defs6">
    <inkscape:perspective
       sodipodi:type="inkscape:persp3d"
       inkscape:vp_x="0 : 240 : 1"
       inkscape:vp_y="0 : 1000 : 0"
       inkscape:vp_z="600 : 240 : 1"
       inkscape:persp3d-origin="300 : 160 : 1"
       id="perspective218" />
    <circle
       id="gpDot"
       r="0.5"
       cx="0"
       cy="0"
       sodipodi:cx="0"
       sodipodi:cy="0"
       sodipodi:rx="0.5"
       sodipodi:ry="0.5"
       style="stroke-width:0.5" />
    <path
       id="gpPt0"
       d="M -1,0 H 1 M 0,-1 v 2"
       style="stroke:currentColor;stroke-width:0.222" />
    <path
       id="gpPt1"
       d="M -1,-1 1,1 M 1,-1 -1,1"
       style="stroke:currentColor;stroke-width:0.222" />
    <path
       id="gpPt2"
       d="M -1,0 1,0 M 0,-1 0,1 m -1,-2 2,2 m -2,0 2,-2"
       style="stroke:currentColor;stroke-width:0.222" />
    <rect
       id="gpPt3"
       x="-1"
       y="-1"
       width="2"
       height="2"
       style="stroke:currentColor;stroke-width:0.222" />
    <rect
       id="gpPt4"
       x="-1"
       y="-1"
       width="2"
       height="2"
       style="fill:currentColor;stroke:currentColor;stroke-width:0.222" />
    <circle
       id="gpPt5"
       cx="0"
       cy="0"
       r="1"
       sodipodi:cx="0"
       sodipodi:cy="0"
       sodipodi:rx="1"
       sodipodi:ry="1"
       style="stroke:currentColor;stroke-width:0.222" />
    <use
       xlink:href="#gpPt5"
       id="gpPt6"
       style="fill:currentColor;stroke:none"
       x="0"
       y="0"
       width="600"
       height="480" />
    <path
       id="gpPt7"
       d="m 0,-1.33 -1.33,2 2.66,0 z"
       style="stroke:currentColor;stroke-width:0.222" />
    <use
       xlink:href="#gpPt7"
       id="gpPt8"
       style="fill:currentColor;stroke:none"
       x="0"
       y="0"
       width="600"
       height="480" />
    <use
       xlink:href="#gpPt7"
       id="gpPt9"
       transform="scale(-1,-1)"
       style="stroke:currentColor"
       x="0"
       y="0"
       width="600"
       height="480" />
    <use
       xlink:href="#gpPt9"
       id="gpPt10"
       style="fill:currentColor;stroke:none"
       x="0"
       y="0"
       width="600"
       height="480" />
    <use
       xlink:href="#gpPt3"
       id="gpPt11"
       transform="matrix(0.70710678,0.70710678,-0.70710678,0.70710678,0,0)"
       style="stroke:currentColor"
       x="0"
       y="0"
       width="600"
       height="480" />
    <use
       xlink:href="#gpPt11"
       id="gpPt12"
       style="fill:currentColor;stroke:none"
       x="0"
       y="0"
       width="600"
       height="480" />
    <inkscape:perspective
       id="perspective3947"
       inkscape:persp3d-origin="0.5 : 0.33333333 : 1"
       inkscape:vp_z="1 : 0.5 : 1"
       inkscape:vp_y="0 : 1000 : 0"
       inkscape:vp_x="0 : 0.5 : 1"
       sodipodi:type="inkscape:persp3d" />
    <inkscape:perspective
       id="perspective3969"
       inkscape:persp3d-origin="0.5 : 0.33333333 : 1"
       inkscape:vp_z="1 : 0.5 : 1"
       inkscape:vp_y="0 : 1000 : 0"
       inkscape:vp_x="0 : 0.5 : 1"
       sodipodi:type="inkscape:persp3d" />
    <inkscape:perspective
       id="perspective3991"
       inkscape:persp3d-origin="0.5 : 0.33333333 : 1"
       inkscape:vp_z="1 : 0.5 : 1"
       inkscape:vp_y="0 : 1000 : 0"
       inkscape:vp_x="0 : 0.5 : 1"
       sodipodi:type="inkscape:persp3d" />
    <inkscape:perspective
       id="perspective3991-5"
       inkscape:persp3d-origin="0.5 : 0.33333333 : 1"
       inkscape:vp_z="1 : 0.5 : 1"
       inkscape:vp_y="0 : 1000 : 0"
       inkscape:vp_x="0 : 0.5 : 1"
       sodipodi:type="inkscape:persp3d" />
  </defs>
  <path
     style="color:#000000;fill:none;stroke:currentColor;stroke-width:1;stroke-linecap:butt;stroke-linejoin:miter"
     id="path130-9"
     d="m 268.62773,463.15 0,-9 m 0,-93 0,9" />
  <path
     style="color:#000000;fill:none;stroke:currentColor;stroke-width:1;stroke-linecap:butt;stroke-linejoin:miter;stroke-miterlimit:4;stroke-dasharray:2, 1;stroke-dashoffset:0"
     id="path70"
     d="m 24.427734,0.75 0,101.9 539.699996,0 0,-101.9 -539.699996,0 z" />
  <path
     style="color:#000000;fill:none;stroke:currentColor;stroke-width:1;stroke-linecap:butt;stroke-linejoin:miter;stroke-miterlimit:4;stroke-dasharray:2, 1;stroke-dashoffset:0"
     id="path116"
     d="m 24.427734,120.75 0,101.9 539.699996,0 0,-101.9 -539.699996,0 z" />
  <path
     style="color:#000000;fill:none;stroke:currentColor;stroke-width:1;stroke-linecap:butt;stroke-linejoin:miter;stroke-miterlimit:4;stroke-dasharray:2, 1;stroke-dashoffset:0"
     id="path162"
     d="m 24.427734,240.65 0,102 539.699996,0 0,-102 -539.699996,0 z" />
  <g
     style="color:#ffffff;fill:none;stroke:currentColor;stroke-width:1;stroke-linecap:butt;stroke-linejoin:miter"
     id="g22"
     transform="translate(-14.972266,-8.35)" />
  <path
     style="color:#000000;fill:none;stroke:currentColor;stroke-width:1;stroke-linecap:butt;stroke-linejoin:miter"
     id="path26"
     d="m 24.427734,102.65 0,-9 m 0,-92.9 0,9" />
  <g
     id="g28"
     style="font-size:15px;text-anchor:middle;color:#000000;fill:#000000;stroke:none;font-family:Arial"
     transform="translate(24.427734,125.15)">
    <text
       id="text30" />
  </g>
  <path
     style="color:#000000;fill:none;stroke:currentColor;stroke-width:1;stroke-linecap:butt;stroke-linejoin:miter"
     id="path32"
     d="m 146.52773,102.65 0,-9 m 0,-92.9 0,9" />
  <g
     id="g34"
     style="font-size:15px;text-anchor:middle;color:#000000;fill:#000000;stroke:none;font-family:Arial"
     transform="translate(146.52773,125.15)">
    <text
       id="text36" />
  </g>
  <path
     style="color:#000000;fill:none;stroke:currentColor;stroke-width:1;stroke-linecap:butt;stroke-linejoin:miter"
     id="path38"
     d="m 268.62773,102.65 0,-9 m 0,-92.9 0,9" />
  <g
     id="g40"
     style="font-size:15px;text-anchor:middle;color:#000000;fill:#000000;stroke:none;font-family:Arial"
     transform="translate(268.62773,125.15)">
    <text
       id="text42" />
  </g>
  <path
     style="color:#000000;fill:none;stroke:currentColor;stroke-width:1;stroke-linecap:butt;stroke-linejoin:miter"
     id="path44"
     d="m 390.72773,102.65 0,-9 m 0,-92.9 0,9" />
  <g
     id="g46"
     style="font-size:15px;text-anchor:middle;color:#000000;fill:#000000;stroke:none;font-family:Arial"
     transform="translate(390.72773,125.15)">
    <text
       id="text48" />
  </g>
  <path
     style="color:#000000;fill:none;stroke:currentColor;stroke-width:1;stroke-linecap:butt;stroke-linejoin:miter"
     id="path50"
     d="m 512.82773,102.65 0,-9 m 0,-92.9 0,9" />
  <g
     id="g52"
     style="font-size:15px;text-anchor:middle;color:#000000;fill:#000000;stroke:none;font-family:Arial"
     transform="translate(512.82773,125.15)">
    <text
       id="text54" />
  </g>
  <g
     id="g58"
     style="font-size:15px;text-anchor:middle;color:#000000;fill:#000000;stroke:none;font-family:Arial"
     transform="matrix(0,-1,1,0,10.927734,51.75)">
    <text
       id="text60">Trigger</text>
  </g>
  <path
     style="color:#000000;fill:none;stroke:currentColor;stroke-width:1;stroke-linecap:butt;stroke-linejoin:miter"
     id="path72"
     d="m 24.427734,222.65 0,-9 m 0,-92.9 0,9" />
  <g
     id="g74"
     style="font-size:15px;text-anchor:middle;color:#000000;fill:#000000;stroke:none;font-family:Arial"
     transform="translate(24.427734,245.15)">
    <text
       id="text76" />
  </g>
  <path
     style="color:#000000;fill:none;stroke:currentColor;stroke-width:1;stroke-linecap:butt;stroke-linejoin:miter"
     id="path78"
     d="m 146.52773,222.65 0,-9 m 0,-92.9 0,9" />
  <g
     id="g80"
     style="font-size:15px;text-anchor:middle;color:#000000;fill:#000000;stroke:none;font-family:Arial"
     transform="translate(146.52773,245.15)">
    <text
       id="text82" />
  </g>
  <path
     style="color:#000000;fill:none;stroke:currentColor;stroke-width:1;stroke-linecap:butt;stroke-linejoin:miter"
     id="path84"
     d="m 268.62773,222.65 0,-9 m 0,-92.9 0,9" />
  <g
     id="g86"
     style="font-size:15px;text-anchor:middle;color:#000000;fill:#000000;stroke:none;font-family:Arial"
     transform="translate(268.62773,245.15)">
    <text
       id="text88" />
  </g>
  <path
     style="color:#000000;fill:none;stroke:currentColor;stroke-width:1;stroke-linecap:butt;stroke-linejoin:miter"
     id="path90"
     d="m 390.72773,222.65 0,-9 m 0,-92.9 0,9" />
  <g
     id="g92"
     style="font-size:15px;text-anchor:middle;color:#000000;fill:#000000;stroke:none;font-family:Arial"
     transform="translate(390.72773,245.15)">
    <text
       id="text94" />
  </g>
  <path
     style="color:#000000;fill:none;stroke:currentColor;stroke-width:1;stroke-linecap:butt;stroke-linejoin:miter"
     id="path96"
     d="m 512.82773,222.65 0,-9 m 0,-92.9 0,9" />
  <g
     id="g98"
     style="font-size:15px;text-anchor:middle;color:#000000;fill:#000000;stroke:none;font-family:Arial"
     transform="translate(512.82773,245.15)">
    <text
       id="text100" />
  </g>
  <g
     id="g104"
     style="font-size:15px;text-anchor:middle;color:#000000;fill:#000000;stroke:none;font-family:Arial"
     transform="matrix(0,-1,1,0,10.927734,171.75)">
    <text
       id="text106">Odbiornik #1</text>
  </g>
  <path
     style="color:#000000;fill:none;stroke:currentColor;stroke-width:1;stroke-linecap:butt;stroke-linejoin:miter"
     id="path118"
     d="m 24.427734,342.65 0,-9 m 0,-93 0,9" />
  <g
     id="g120"
     style="font-size:15px;text-anchor:middle;color:#000000;fill:#000000;stroke:none;font-family:Arial"
     transform="translate(24.427734,365.15)">
    <text
       id="text122" />
  </g>
  <path
     style="color:#000000;fill:none;stroke:currentColor;stroke-width:1;stroke-linecap:butt;stroke-linejoin:miter"
     id="path124"
     d="m 146.52773,342.65 0,-9 m 0,-93 0,9" />
  <g
     id="g126"
     style="font-size:15px;text-anchor:middle;color:#000000;fill:#000000;stroke:none;font-family:Arial"
     transform="translate(146.52773,365.15)">
    <text
       id="text128" />
  </g>
  <path
     style="color:#000000;fill:none;stroke:currentColor;stroke-width:1;stroke-linecap:butt;stroke-linejoin:miter"
     id="path130"
     d="m 268.62773,342.65 0,-9 m 0,-93 0,9" />
  <g
     id="g132"
     style="font-size:15px;text-anchor:middle;color:#000000;fill:#000000;stroke:none;font-family:Arial"
     transform="translate(268.62773,365.15)">
    <text
       id="text134" />
  </g>
  <path
     style="color:#000000;fill:none;stroke:currentColor;stroke-width:1;stroke-linecap:butt;stroke-linejoin:miter"
     id="path136"
     d="m 390.72773,342.65 0,-9 m 0,-93 0,9" />
  <g
     id="g138"
     style="font-size:15px;text-anchor:middle;color:#000000;fill:#000000;stroke:none;font-family:Arial"
     transform="translate(390.72773,365.15)">
    <text
       id="text140" />
  </g>
  <path
     style="color:#000000;fill:none;stroke:currentColor;stroke-width:1;stroke-linecap:butt;stroke-linejoin:miter"
     id="path142"
     d="m 512.82773,342.65 0,-9 m 0,-93 0,9" />
  <g
     id="g144"
     style="font-size:15px;text-anchor:middle;color:#000000;fill:#000000;stroke:none;font-family:Arial"
     transform="translate(512.82773,365.15)">
    <text
       id="text146" />
  </g>
  <g
     id="g150"
     style="font-size:15px;text-anchor:middle;color:#000000;fill:#000000;stroke:none;font-family:Arial"
     transform="matrix(0,-1,1,0,10.927734,291.65)">
    <text
       id="text152">Odbiornik #2</text>
  </g>
  <path
     style="color:#000000;fill:none;stroke:currentColor;stroke-width:1;stroke-linecap:butt;stroke-linejoin:miter"
     id="path164"
     d="m 24.427734,417.65 0,-9 m 0,-48 0,9" />
  <g
     id="g166"
     style="font-size:15px;text-anchor:middle;color:#000000;fill:#000000;stroke:none;font-family:Arial"
     transform="translate(24.427734,478.46689)">
    <text
       id="text168">0</text>
  </g>
  <g
     id="g172"
     style="font-size:15px;text-anchor:middle;color:#000000;fill:#000000;stroke:none;font-family:Arial"
     transform="translate(146.52773,478.45957)">
    <text
       id="text174">10</text>
  </g>
  <g
     id="g178"
     style="font-size:15px;text-anchor:middle;color:#000000;fill:#000000;stroke:none;font-family:Arial"
     transform="translate(268.62773,478.45957)">
    <text
       id="text180">20</text>
  </g>
  <g
     id="g184"
     style="font-size:15px;text-anchor:middle;color:#000000;fill:#000000;stroke:none;font-family:Arial"
     transform="translate(390.72773,478.45957)">
    <text
       id="text186">30</text>
  </g>
  <g
     id="g190"
     style="font-size:15px;text-anchor:middle;color:#000000;fill:#000000;stroke:none;font-family:Arial"
     transform="translate(512.82773,478.46689)">
    <text
       id="text192">40</text>
  </g>
  <g
     id="g196"
     style="font-size:15px;text-anchor:middle;color:#000000;fill:#000000;stroke:none;font-family:Arial"
     transform="matrix(0,-1,1,0,10.927734,411.65039)">
    <text
       id="text198">Odbiornik #3</text>
  </g>
  <g
     id="g200"
     style="font-size:15px;text-anchor:middle;color:#000000;fill:#000000;stroke:none;font-family:Arial"
     transform="translate(294.22773,496.64153)">
    <text
       id="text202">Czas [ms]</text>
  </g>
  <g
     style="color:#000000;fill:none;stroke:currentColor;stroke-width:0.74937433;stroke-linecap:butt;stroke-linejoin:miter;stroke-miterlimit:4;stroke-dasharray:1.49874867, 0.74937434;stroke-dashoffset:0"
     id="g210"
     transform="matrix(0.99938031,0,0,1.7818518,-14.780627,-296.58609)">
    <path
       d="m 39.4,369 0,57 539.7,0 0,-57 -539.7,0 z"
       id="path212"
       style="stroke-width:0.74937433;stroke-miterlimit:4;stroke-dasharray:1.49874867, 0.74937434;stroke-dashoffset:0" />
  </g>
  <a
     xlink:title="Plot #1"
     id="a108"
     style="fill:none;stroke:#ff0000;stroke-width:1.5;stroke-miterlimit:4;stroke-opacity:1;stroke-dasharray:none"
     transform="translate(-14.972266,-8.35)">
    <g
       style="color:#ff0000;fill:none;stroke:#ff0000;stroke-width:1.5;stroke-linecap:butt;stroke-linejoin:miter;stroke-miterlimit:4;stroke-opacity:1;stroke-dasharray:none"
       id="g110">
      <path
         d="m 39.4,129.1 16.9,0 0.1,101.9 49.8,0 0.1,-101.9 19.5,0 0.2,101.9 20.7,0 0.2,-101.9 179.2,0 0.1,101.9 50.6,0 0.1,-101.9 19.7,0 0.1,101.9 20.1,0 0.1,-101.9 162.1,0"
         id="path112"
         style="fill:none;stroke:#ff0000;stroke-width:1.5;stroke-miterlimit:4;stroke-opacity:1;stroke-dasharray:none"
         sodipodi:nodetypes="cccccccccccccccccc" />
    </g>
  </a>
  <a
     xlink:title="Plot #1"
     id="a62"
     style="stroke:#ff0000;stroke-width:1.5;stroke-miterlimit:4;stroke-opacity:1;stroke-dasharray:none"
     transform="translate(-14.972266,-8.35)">
    <g
       style="color:#ff0000;fill:none;stroke:#ff0000;stroke-width:1.5;stroke-linecap:butt;stroke-linejoin:miter;stroke-miterlimit:4;stroke-opacity:1;stroke-dasharray:none"
       id="g64">
      <path
         d="m 39.5,9.1 0,101.9 17,0 0.1,-101.9 252.5,0 0.2,101.9 17,5e-4 0.2,-101.9005 252.50027,0 0,101.9005"
         id="path66"
         style="stroke:#ff0000;stroke-width:1.5;stroke-miterlimit:4;stroke-opacity:1;stroke-dasharray:none"
         sodipodi:nodetypes="cccccccccc" />
    </g>
  </a>
  <path
     style="color:#000000;fill:none;stroke:currentColor;stroke-width:1;stroke-linecap:butt;stroke-linejoin:miter"
     id="path130-9-4"
     d="m 146.52773,463.15 0,-9 m 0,-93 0,9" />
  <path
     style="color:#000000;fill:none;stroke:currentColor;stroke-width:1;stroke-linecap:butt;stroke-linejoin:miter"
     id="path130-9-2"
     d="m 390.72773,463.15 0,-9 m 0,-93 0,9" />
  <path
     style="color:#000000;fill:none;stroke:currentColor;stroke-width:1;stroke-linecap:butt;stroke-linejoin:miter"
     id="path130-9-42"
     d="m 512.52773,463.15 0,-9 m 0,-93 0,9" />
  <a
     xlink:title="Plot #1"
     id="a204"
     transform="matrix(1,0,0,1.7741379,-14.972266,-293.51982)"
     style="fill:none;stroke:#ff0000;stroke-width:1.12615347;stroke-miterlimit:4;stroke-opacity:1;stroke-dasharray:none">
    <g
       style="color:#ff0000;fill:none;stroke:#ff0000;stroke-width:1.12615347;stroke-linecap:butt;stroke-linejoin:miter;stroke-miterlimit:4;stroke-opacity:1;stroke-dasharray:none"
       id="g206">
      <path
         d="m 39.4,369 15.8,0 0.1,57 48,0 0.1,-57 32.6,0 0.1,57 23.7,0 0.1,-57 165.1,0 0.1,57 46.9,0 0.1,-57 33.5,0 0.1,57 23,0 0.1,-57 150.2,0"
         id="path208"
         style="fill:none;stroke:#ff0000;stroke-width:1.12615347;stroke-miterlimit:4;stroke-opacity:1;stroke-dasharray:none"
         sodipodi:nodetypes="cccccccccccccccccc" />
    </g>
  </a>
  <a
     xlink:title="Plot #1"
     id="a154"
     style="fill:none;stroke:#ff0000;stroke-width:1.5;stroke-miterlimit:4;stroke-opacity:1;stroke-dasharray:none"
     transform="translate(-14.972266,-8.35)">
    <g
       style="color:#ff0000;fill:none;stroke:#ff0000;stroke-width:1.5;stroke-linecap:butt;stroke-linejoin:miter;stroke-miterlimit:4;stroke-opacity:1;stroke-dasharray:none"
       id="g156">
      <path
         d="m 39.4,249 11.6,0 0.1,102 46.5,0 0.2,-102 0.1,0 0.1,0 0.1,0 37.5,0 0.1,102 4.7,0 0.1,-102 180.3,0 0.2,102 46,0 0.1,-102 37.8,0 0.1,102 6.5,0 0.1,-102 163.5,0 0.1,0 0.1,0 0.1,0 0.2,0 0.1,0 0.1,0 0.1,0 0.1,0 0.2,0 0.1,0 0.1,0 0.1,0 0.2,0 0.1,0 0.1,0 0.1,0 0.1,0 0.2,0 0.1,0 0.1,0 0.1,0 0.2,0 0.1,0 0.1,0 0.1,0 0.1,0 0.2,0 0.1,0 0.1,0 0.1,0 0.2,0 0.1,0"
         id="path158"
         style="fill:none;stroke:#ff0000;stroke-width:1.5;stroke-miterlimit:4;stroke-opacity:1;stroke-dasharray:none"
         sodipodi:nodetypes="ccccccccccccccccccccccccccccccccccccccccccccccccccccc" />
    </g>
  </a>
</svg>
